<svg xmlns="http://www.w3.org/2000/svg" width="337" height="96" viewBox="-8 -8 337 96"><defs><clipPath id="a"><path d="M40 1h39v39H40Zm0 0"/></clipPath><clipPath id="b"><path d="M40 40v-56c24.273-.004 45.79 15.629 53.281 38.719Zm0 0"/></clipPath><clipPath id="c"><path d="M40 22h39v57H40Zm0 0"/></clipPath><clipPath id="d"><path d="m40 40 53.281-17.281c7.461 23.07-.773 48.324-20.402 62.562Zm0 0"/></clipPath><clipPath id="e"><path d="M7 40h66v39H7Zm0 0"/></clipPath><clipPath id="f"><path d="m40 40 32.879 45.281c-19.61 14.223-46.149 14.223-65.758 0Zm0 0"/></clipPath><clipPath id="g"><path d="M1 22h39v57H1Zm0 0"/></clipPath><clipPath id="h"><path d="M40 40 7.121 85.281C-12.508 71.043-20.742 45.79-13.28 22.72Zm0 0"/></clipPath><clipPath id="i"><path d="M1 1h39v39H1Zm0 0"/></clipPath><clipPath id="j"><path d="m40 40-53.281-17.281C-5.79-.371 15.727-16.004 40-16Zm0 0"/></clipPath><clipPath id="k"><path d="M-6 -6h92v92H-6Zm0 0"/></clipPath><linearGradient id="l" x1="0" x2="0" y1="0" y2="1" gradientTransform="matrix(1 0 0 60 96 10)" gradientUnits="userSpaceOnUse"><stop offset="0" stop-opacity="0"/><stop offset=".5" stop-color="#d59a2d" stop-opacity=".42"/><stop offset="1" stop-opacity="0"/></linearGradient></defs><g clip-path="url(#a)"><g clip-path="url(#b)"><path fill="#2e9644" d="m40 1.602 6.121 23.613 21.031-12.367-12.367 21.03L78.398 40l-23.613 6.121 12.367 21.031-21.03-12.367L40 78.398l-6.121-23.613-21.031 12.367 12.367-21.03L1.602 40l23.613-6.121-12.367-21.031 21.03 12.367Zm0 0"/></g></g><g clip-path="url(#c)"><g clip-path="url(#d)"><path fill="#f5a820" d="m40 1.602 6.121 23.613 21.031-12.367-12.367 21.03L78.398 40l-23.613 6.121 12.367 21.031-21.03-12.367L40 78.398l-6.121-23.613-21.031 12.367 12.367-21.03L1.602 40l23.613-6.121-12.367-21.031 21.03 12.367Zm0 0"/></g></g><g clip-path="url(#e)"><g clip-path="url(#f)"><path fill="#c82222" d="m40 1.602 6.121 23.613 21.031-12.367-12.367 21.03L78.398 40l-23.613 6.121 12.367 21.031-21.03-12.367L40 78.398l-6.121-23.613-21.031 12.367 12.367-21.03L1.602 40l23.613-6.121-12.367-21.031 21.03 12.367Zm0 0"/></g></g><g clip-path="url(#g)"><g clip-path="url(#h)"><path fill="#e07020" d="m40 1.602 6.121 23.613 21.031-12.367-12.367 21.03L78.398 40l-23.613 6.121 12.367 21.031-21.03-12.367L40 78.398l-6.121-23.613-21.031 12.367 12.367-21.03L1.602 40l23.613-6.121-12.367-21.031 21.03 12.367Zm0 0"/></g></g><g clip-path="url(#i)"><g clip-path="url(#j)"><path fill="#2272b8" d="m40 1.602 6.121 23.613 21.031-12.367-12.367 21.03L78.398 40l-23.613 6.121 12.367 21.031-21.03-12.367L40 78.398l-6.121-23.613-21.031 12.367 12.367-21.03L1.602 40l23.613-6.121-12.367-21.031 21.03 12.367Zm0 0"/></g></g><path fill="#fff" d="m40 30.398 1.527 5.907 5.266-3.098-3.098 5.266L49.602 40l-5.907 1.527 3.098 5.266-5.266-3.098L40 49.602l-1.527-5.907-5.266 3.098 3.098-5.266L30.398 40l5.907-1.527-3.098-5.266 5.266 3.098Zm0 0"/><g clip-path="url(#k)"><path fill="none" stroke="#d69a2d" stroke-width="4.4" d="M81.602 40c0 22.977-18.625 41.602-41.602 41.602S-1.602 62.977-1.602 40 17.023-1.602 40-1.602 81.602 17.023 81.602 40Zm0 0"/></g><path fill="url(#l)" d="M96 10h1v60h-1Zm0 0"/><path fill="#1a1a1a" d="M114.254 44V30.7h2.508V44Zm5.016 0V30.7h4.656l2.297 11.59h.343l2.297-11.59h4.657V44h-2.434V32.543h-.34L128.465 44h-4.14l-2.282-11.457h-.34V44Zm16.757 0V30.7h5.473q1.254 0 2.215.503a3.76 3.76 0 0 1 1.5 1.414q.54.915.539 2.168v.266q.002 1.236-.559 2.156a3.84 3.84 0 0 1-1.52 1.426q-.96.504-2.175.504h-2.965V44Zm2.508-7.145h2.719q.89 0 1.441-.492.551-.497.551-1.351v-.188q0-.855-.55-1.351-.552-.493-1.442-.493h-2.719ZM145.566 44l3.496-13.3h4.368l3.496 13.3h-2.582l-.723-2.926h-4.75L148.148 44Zm3.895-5.242h3.57l-1.613-6.48h-.344Zm14.004 5.508c-1.649 0-2.953-.457-3.914-1.38q-1.447-1.375-1.446-3.94v-3.192q-.001-2.566 1.446-3.941 1.44-1.378 3.914-1.38 2.451 0 3.789 1.34 1.34 1.34 1.34 3.676v.114h-2.469v-.188c0-.785-.219-1.434-.656-1.937q-.657-.762-2.004-.762-1.33 0-2.09.816c-.508.547-.762 1.285-.762 2.223v3.27q0 1.387.762 2.214.76.825 2.09.824 1.347 0 2.004-.77.656-.767.656-1.929v-.34h2.469v.266q0 2.339-1.34 3.676-1.337 1.34-3.79 1.34m9.992-.266V32.98h-3.875V30.7h10.258v2.28h-3.875V44Zm12.73.266c-1.671 0-3-.457-3.988-1.38q-1.483-1.375-1.484-3.94v-3.192q.001-2.566 1.484-3.941 1.482-1.378 3.988-1.38 2.51.002 3.989 1.38 1.483 1.375 1.484 3.94v3.192q-.001 2.566-1.484 3.942-1.482 1.378-3.988 1.379m0-2.243q1.406 0 2.184-.816.78-.816.781-2.184V35.68c0-.914-.261-1.64-.78-2.188q-.779-.815-2.185-.816-1.386 0-2.175.816-.791.819-.79 2.188v3.343c0 .91.266 1.641.79 2.184q.789.815 2.175.816M198.692 44V30.7h2.508V44Zm5.016 0V30.7h4.77l2.64 11.59h.344V30.7h2.469V44h-4.77l-2.64-11.59h-.344V44Zm12.348 0v-2.203h1.746v-8.895h-1.746V30.7h5.472q2.68 0 4.075 1.36 1.394 1.357 1.394 4.039v2.507q0 2.678-1.394 4.036Q224.206 44 221.527 44Zm4.254-2.281h1.254q1.52 0 2.222-.797.703-.795.703-2.242v-2.66q0-1.465-.703-2.25-.701-.791-2.222-.79h-1.254Zm8.78 2.281V30.7h2.509V44Zm-.226-14.402 1.328-2.47h2.774l-1.977 2.47Zm9.84 14.668q-1.366 0-2.48-.618-1.109-.615-1.766-1.804-.656-1.188-.656-2.899v-3.191q-.001-2.566 1.445-3.941 1.442-1.378 3.914-1.38 2.452 0 3.79 1.301 1.34 1.301 1.34 3.528v.074h-2.47v-.152q.001-.705-.297-1.274a2.16 2.16 0 0 0-.882-.902c-.391-.223-.887-.332-1.48-.332q-1.33 0-2.09.816c-.508.547-.762 1.285-.762 2.223v3.27q0 1.386.761 2.23c.508.566 1.215.847 2.13.847q1.365-.001 1.991-.722.628-.722.63-1.824v-.192h-3.157V37.2h5.625V44h-2.316v-1.273h-.344c-.09.214-.23.445-.426.683q-.294.363-.883.61-.591.246-1.617.246m7.98-.266V30.7h8.551v2.28h-6.043v3.172h5.512v2.282h-5.512v3.285h6.157V44Zm10.528 0V30.7h4.77l2.64 11.59h.344V30.7h2.469V44h-4.77l-2.64-11.59h-.344V44Zm11.82 0 3.496-13.3h4.368L280.39 44h-2.582l-.723-2.926h-4.75L271.613 44Zm3.895-5.242h3.57l-1.613-6.48h-.344ZM113 25.305"/><path transform="translate(-116,3.7) scale(1.3)" fill="#e07020" d="M304.793 31.168q-.485.001-.816-.32-.33-.322-.329-.825 0-.499.329-.816c.222-.21.492-.32.816-.32s.594.11.812.32q.324.321.325.824-.001.499-.325.82-.327.317-.812.317m2.625-.168v-5.953h1.488v.781h.215q.145-.311.543-.594.392-.28 1.2-.28c.464 0 .866.105 1.218.316q.522.316.809.875c.191.37.289.808.289 1.304V31h-1.512v-3.434q-.002-.667-.332-1.007-.33-.335-.941-.336-.697 0-1.082.465-.382.462-.383 1.289V31Zm10.102.168q-.886.001-1.567-.379-.674-.375-1.055-1.066-.376-.692-.378-1.625v-.145q0-.937.375-1.629a2.64 2.64 0 0 1 1.043-1.066c.449-.25.968-.38 1.558-.38.586 0 1.094.134 1.524.392q.65.39 1.007 1.082.364.687.364 1.601v.516h-4.332q.024.609.453.996.432.382 1.058.383c.422 0 .735-.09.934-.278q.299-.274.457-.61l1.234.65q-.166.31-.484.675-.318.368-.848.625-.525.258-1.343.258m-1.45-3.828h2.782a1.18 1.18 0 0 0-.414-.828q-.366-.312-.954-.313-.609.001-.972.313a1.34 1.34 0 0 0-.442.828m6.118 3.66-.84-5.953h1.5l.527 4.933h.215l.77-4.933h2.421l.77 4.933h.215l.53-4.933h1.5L328.958 31h-2.512l-.765-4.934h-.215l-.77 4.934Zm11.398.168q-1.166 0-1.91-.504-.742-.504-.899-1.441l1.391-.36q.087.422.285.66c.133.16.293.274.492.344q.292.101.64.102.53 0 .782-.188.251-.187.25-.46a.47.47 0 0 0-.238-.426q-.241-.153-.77-.247l-.336-.058a6 6 0 0 1-1.14-.332 2.06 2.06 0 0 1-.828-.582q-.312-.37-.313-.961.002-.885.649-1.36.649-.475 1.703-.476c.664 0 1.219.148 1.656.445q.661.445.867 1.164l-1.406.434c-.063-.305-.195-.524-.39-.649a1.3 1.3 0 0 0-.727-.195c-.285 0-.508.05-.66.152a.47.47 0 0 0-.227.415q.001.285.242.425.24.135.645.211l.336.059q.674.123 1.218.316.547.198.864.567c.215.242.32.574.32.988q0 .936-.68 1.445-.68.511-1.816.512M303 19.191"/><path transform="translate(-23,-11) scale(1.2)" fill="#404040" d="M113.723 62v-6.3h1.437l1.672 5.823h.121l1.672-5.824h1.438V62h-.731v-5.805h-.125L117.543 62h-1.3l-1.669-5.805h-.12V62Zm9.828.125q-.674 0-1.172-.281a2 2 0 0 1-.785-.801q-.282-.511-.281-1.188v-.109c0-.457.093-.851.28-1.195.188-.34.442-.606.774-.793a2.25 2.25 0 0 1 1.133-.285q.627 0 1.102.27.478.264.746.757.272.491.273 1.164v.316h-3.59q.025.715.453 1.114.428.398 1.079.398.573 0 .878-.258c.204-.172.356-.379.465-.617l.614.293c-.09.188-.211.375-.372.563q-.24.279-.62.465-.384.186-.977.187m-1.512-2.723h2.856q-.034-.616-.415-.957t-.98-.34q-.603 0-.984.34c-.258.227-.414.547-.477.957m6.684 2.723q-.57 0-1.043-.27a2 2 0 0 1-.754-.78q-.284-.511-.285-1.216v-.117q0-.704.28-1.215.28-.51.755-.78c.316-.18.664-.274 1.047-.274.308 0 .566.043.777.12q.316.124.516.305c.132.125.238.254.308.395h.125v-2.594h.711V62h-.691v-.727h-.125a1.75 1.75 0 0 1-.555.59q-.382.263-1.066.262m.187-.633q.68 0 1.113-.433c.29-.293.43-.7.43-1.22v-.077c0-.524-.14-.93-.43-1.219q-.428-.439-1.113-.438-.675 0-1.11.438-.433.433-.433 1.219v.078q0 .78.434 1.219.434.433 1.11.433m3.746.508v-4.402h.711V62Zm.36-5.086a.54.54 0 0 1-.391-.152.51.51 0 0 1-.156-.387q-.001-.241.156-.395a.54.54 0 0 1 .39-.156c.157 0 .286.055.387.156a.54.54 0 0 1 .157.395q.001.234-.157.387a.52.52 0 0 1-.386.152m3.879 5.211q-.668-.001-1.176-.277a2 2 0 0 1-.793-.79 2.45 2.45 0 0 1-.285-1.199v-.117q.002-.69.285-1.199.282-.509.793-.79a2.4 2.4 0 0 1 1.176-.28q.661 0 1.171.28.511.281.793.79c.188.34.286.738.286 1.2v.116c0 .457-.094.86-.286 1.2q-.282.508-.793.789-.51.279-1.171.277m0-.637c.464 0 .84-.148 1.117-.445q.42-.447.418-1.203v-.078q0-.757-.414-1.203c-.282-.297-.653-.45-1.121-.45-.465 0-.836.153-1.118.45q-.421.446-.422 1.203v.078q0 .757.422 1.203.422.445 1.118.445m5.816.512v-6.3h.754V62Zm2.223 0v-4.398h.691v.742h.125q.146-.317.496-.574.345-.253 1.02-.254c.328 0 .62.07.886.21.262.141.473.344.625.614.157.27.23.601.23.996V62h-.71v-2.613q0-.656-.328-.953-.327-.298-.887-.297-.632 0-1.035.418-.404.414-.402 1.234V62Zm7.379.125q-.57 0-1.043-.27a2 2 0 0 1-.754-.78c-.188-.34-.286-.747-.286-1.216v-.117q0-.704.282-1.215.28-.51.754-.78c.316-.18.664-.274 1.047-.274.308 0 .566.043.777.12q.316.124.515.305c.133.125.239.254.31.395h.124v-2.594h.711V62h-.691v-.727h-.125a1.75 1.75 0 0 1-.555.59q-.382.263-1.066.262m.187-.633q.68 0 1.113-.433c.29-.293.43-.7.43-1.22v-.077c0-.524-.14-.93-.43-1.219q-.427-.439-1.113-.438-.675 0-1.11.438-.433.433-.433 1.219v.078q0 .78.434 1.219.434.433 1.109.433m3.746.508v-4.402h.711V62Zm-.117-4.996.695-1.223h.856l-.868 1.223Zm2.101 2.812V59.7q.002-.696.286-1.191.28-.497.754-.766a2.1 2.1 0 0 1 1.046-.27q.692.001 1.067.266.375.264.55.586h.126v-.722h.68v5.421c0 .243-.067.43-.2.57q-.201.207-.578.208h-2.988v-.633h2.797q.27 0 .27-.27v-1.671h-.126a1.56 1.56 0 0 1-.816.695q-.315.122-.782.121-.571 0-1.05-.27a1.95 1.95 0 0 1-.754-.765q-.282-.498-.282-1.192m2.27 1.594q.68.002 1.113-.426c.29-.289.43-.683.43-1.187v-.078c0-.508-.14-.907-.43-1.188q-.427-.427-1.113-.426-.675 0-1.11.426-.433.424-.433 1.188v.078q0 .755.434 1.187.434.428 1.109.426m5.746.715q-.674 0-1.172-.281a2 2 0 0 1-.785-.801q-.28-.511-.281-1.188v-.109c0-.457.094-.851.281-1.195.188-.34.441-.606.774-.793a2.25 2.25 0 0 1 1.132-.285q.627 0 1.102.27.478.264.746.757.272.491.273 1.164v.316h-3.59q.025.715.454 1.114.427.398 1.078.398.575 0 .879-.258c.203-.172.355-.379.465-.617l.613.293c-.09.188-.211.375-.371.563q-.24.279-.621.465-.383.186-.977.187m-1.512-2.723h2.856q-.034-.616-.414-.957-.382-.34-.98-.34-.604 0-.985.34c-.258.227-.414.547-.477.957m4.82 2.598v-4.398h.692v.742h.125q.146-.317.496-.574.345-.253 1.02-.254c.328 0 .62.07.886.21.262.141.473.344.625.614.157.27.23.601.23.996V62h-.71v-2.613q0-.656-.328-.953-.327-.298-.887-.297-.632 0-1.035.418-.404.414-.402 1.234V62Zm6.872.125c-.309 0-.586-.05-.836-.16a1.34 1.34 0 0 1-.594-.469 1.28 1.28 0 0 1-.219-.75q.001-.444.22-.742.217-.294.593-.441t.84-.149h1.492v-.32q.001-.47-.274-.739-.276-.27-.816-.27-.533 0-.832.259-.3.257-.398.683l-.676-.21q.11-.373.344-.676.236-.304.625-.485c.261-.12.578-.183.94-.183.563 0 1.005.144 1.317.437.317.29.473.695.473 1.227v1.988q-.001.27.25.27h.406V62h-.629a.68.68 0 0 1-.472-.164.59.59 0 0 1-.176-.45v-.046h-.113a2 2 0 0 1-.262.355 1.3 1.3 0 0 1-.457.309q-.289.122-.746.121m.086-.61q.627 0 1.02-.374.39-.374.39-1.047v-.102h-1.461q-.423.001-.7.184-.269.18-.269.554 0 .369.281.579.282.206.739.207m5.41.485 1.941-6.3h1.332l1.942 6.3h-.782l-.484-1.59h-2.684l-.484 1.59Zm1.46-2.281h2.294l-1.086-3.559h-.121ZM188.087 62v-6.3h.754V62Zm4.512 0v-6.3h1.464l2.192 5.823h.125V55.7h.746V62h-1.465l-2.191-5.828h-.125V62Zm7.347.125c-.308 0-.586-.05-.836-.16a1.34 1.34 0 0 1-.593-.469 1.28 1.28 0 0 1-.22-.75q.001-.444.22-.742.217-.294.593-.441t.84-.149h1.492v-.32q0-.47-.273-.739-.277-.27-.816-.27-.534 0-.832.259-.3.257-.399.683l-.676-.21q.111-.373.344-.676.236-.304.625-.485.395-.181.941-.183.846-.001 1.317.437c.316.29.473.695.473 1.227v1.988q-.001.27.25.27h.406V62h-.63a.68.68 0 0 1-.472-.164.59.59 0 0 1-.176-.45v-.046h-.113a2 2 0 0 1-.262.355 1.3 1.3 0 0 1-.457.309q-.287.122-.746.121m.086-.61q.627 0 1.02-.374.391-.374.39-1.047v-.102h-1.46q-.423.001-.7.184-.27.18-.27.554 0 .369.282.579.281.206.738.207m5.074.485q-.378 0-.582-.207-.206-.206-.207-.57v-3.008h-1.32v-.613h1.32v-1.567h.715v1.567h1.442v.613h-1.442v2.898q-.002.27.266.27h.976V62Zm2.52 0v-4.402h.71V62Zm.36-5.086a.54.54 0 0 1-.391-.152.51.51 0 0 1-.156-.387q-.001-.241.156-.395a.54.54 0 0 1 .39-.156c.157 0 .286.055.387.156a.54.54 0 0 1 .156.395q.001.234-.156.387a.52.52 0 0 1-.387.152M210.94 62l-1.574-4.398h.758l1.324 3.863h.121l1.325-3.863h.757L212.078 62Zm5.575.125q-.674 0-1.172-.281a2 2 0 0 1-.785-.801q-.282-.511-.282-1.188v-.109c0-.457.094-.851.282-1.195.187-.34.441-.606.773-.793a2.25 2.25 0 0 1 1.133-.285q.627 0 1.101.27.479.264.746.757c.18.328.274.715.274 1.164v.316h-3.59q.025.715.453 1.114.428.398 1.078.398.574 0 .88-.258.302-.259.464-.617l.613.293c-.09.188-.21.375-.37.563q-.24.279-.622.465c-.254.124-.582.187-.976.187m-1.512-2.723h2.855q-.034-.616-.414-.957-.382-.34-.98-.34-.603 0-.985.34-.384.341-.476.957M113 53.145"/></svg>